<svg xmlns:dc="http://purl.org/dc/elements/1.1/" xmlns:cc="http://creativecommons.org/ns#" xmlns:rdf="http://www.w3.org/1999/02/22-rdf-syntax-ns#" xmlns:svg="http://www.w3.org/2000/svg" xmlns="http://www.w3.org/2000/svg" xmlns:sodipodi="http://sodipodi.sourceforge.net/DTD/sodipodi-0.dtd" xmlns:inkscape="http://www.inkscape.org/namespaces/inkscape" version="1.1" x="0px" y="0px" viewBox="0 0 100.00005 100"><g transform="translate(-291.00135,-509.7853)"><path style="color:#5eb3b4;enable-background:accumulate;" d="m 374.57578,509.7853 -1.00756,1.19756 -2.37698,2.26143 -4.30481,-0.33852 -15.45964,24.44493 0.0524,-3.03391 c 0,0 2.63391,-4.64001 2.85145,-6.93492 0.22574,-2.38165 -1.74832,-4.60672 -1.74832,-4.60672 0,0 -6.50929,5.62424 -8.53352,9.9111 -0.9505,2.01254 -3.69131,12.19525 -3.54451,14.0368 0.14306,1.79864 -2.63383,16.02566 -5.2501,19.34482 -8.19236,6.681 -44.25284,30.17171 -44.25284,30.17171 l 0,13.54572 17.23183,0 c 0,0 41.25826,-27.59328 47.40967,-31.02015 1.76371,-0.98271 3.16924,-1.41299 4.61928,-2.82137 1.33927,-1.30084 1.15558,-2.03889 2.46852,-3.78252 2.30534,-3.06198 8.25257,-7.36557 9.39046,-11.03096 2.30959,-7.43944 10.02422,-32.1781 10.02422,-32.1781 l -2.54662,-2.24989 -0.39462,-0.7213 1.58857,-6.42289 -3.11246,-2.95178 -0.0717,-1.83845 0.58683,-2.75212 z m 8.83464,0.33257 -0.95633,1.20218 -1.61381,1.50281 -0.0598,0.36047 -0.53793,2.64478 2.33106,2.16391 1.19541,1.14217 -0.35861,1.68303 -1.2552,4.98914 1.67359,1.50262 1.4345,1.26218 -0.59771,1.80345 c 0,0 -7.67461,24.72673 -9.98173,32.1581 -0.89746,2.89098 -3.02523,4.91756 -5.02075,6.9124 -1.99553,1.99542 -4.01499,3.8914 -4.84144,4.98913 -0.50005,0.66398 -0.6324,0.98193 -0.95633,1.62302 -0.32393,0.64073 -0.88141,1.63901 -1.79312,2.52439 -1.90626,1.85173 -3.75048,2.40492 -5.25984,3.24606 -2.13105,1.18698 -5.14583,2.98217 -8.12883,4.8087 -0.84366,8.99939 -2.40045,23.14889 -2.40045,23.14889 l 24.81451,0 c 0,0 1.44961,-16.4069 2.62992,-23.56975 0.54463,-3.3055 1.67724,-3.74463 1.73335,-5.77043 0.0602,-2.17643 -1.49247,-6.19073 -0.17921,-7.93436 2.30532,-3.06179 4.54032,-7.39463 5.67823,-11.06001 2.3096,-7.43945 10.0415,-32.15829 10.0415,-32.15829 l -2.57015,-2.28393 -0.35863,-0.7213 1.55405,-6.37172 -3.10808,-3.00525 -0.0598,-1.80345 0.59771,-2.76482 -3.64601,-2.22412 z" fill="#5eb3b4" fill-opacity="1" fill-rule="evenodd" stroke="none" marker="none" visibility="visible" display="inline" overflow="visible"></path></g></svg>