<svg xmlns="http://www.w3.org/2000/svg" xmlns:xlink="http://www.w3.org/1999/xlink" version="1.1" x="0px" y="0px" viewBox="0 0 100 100" enable-background="new 0 0 100 100" xml:space="preserve"><g><g><path d="M15.444,33.375H41.21c2.619-0.662,3.825-3.566,3.825-6.29c0-3.092-1.559-6.42-4.981-6.42c0,0-23.689,0-25.503,0    c-1.813,0-3.586,3.507-3.586,6.143C10.965,29.795,11.071,33.375,15.444,33.375z M40.054,47.357c0.035,0,0.067,0.005,0.102,0.005    l0.002-0.005h5.501c2.619-0.662,3.825-3.566,3.825-6.29c0-3.092-1.559-6.42-4.982-6.42c0,0-30.844,0-33.21,0    s-4.448,3.308-4.448,6.284c0,2.859,1.391,6.426,4.146,6.426S40.054,47.357,40.054,47.357z M19.4,19.395c2.567,0,17.15,0,17.15,0    c2.619-0.662,3.825-3.566,3.825-6.289c0-2.993-1.465-7.187-4.662-7.455L21.597,5.625c-3.9,0-7.062,3.162-7.062,7.062    C14.535,15.818,16.833,19.395,19.4,19.395z M45.036,55.048c0-3.092-1.559-6.421-4.981-6.421c0,0-22.175,0-24.943,0    c-2.77,0-4.146,3.567-4.146,6.426c0,3.9,3.161,7.061,7.061,7.061h22.028C43.477,62.114,45.036,58.146,45.036,55.048z     M68.411,5.692v2.436c-1.862-1.518-4.236-2.433-6.828-2.433L40.037,5.656c1.961,1.743,2.88,4.911,2.88,7.449    c0,2.344-0.784,4.798-2.443,6.289h0.851c4.296,0,6.252,3.987,6.252,7.691c0,2.344-0.783,4.798-2.442,6.29h0.638    c4.296,0,6.253,3.987,6.253,7.691c0,3.71-1.957,7.702-6.253,7.702h-0.636c1.658,1.49,2.44,3.939,2.44,6.279    c0,2.509-0.898,5.433-2.807,7.066h2.972c-3.543,4.685-6.426,9.853-8.146,15.479c-0.705,2.402-0.946,3.604-1.212,6.006    c-0.368,3.316,2.35,7.667,4.721,9.719c2.372,2.052,3.987,1.027,4.957-2.289c0.703-2.402,1.164-3.604,2.304-6.006    c2.986-6.1,11.832-16.196,18.045-22.909h24.745V5.692H68.411z M88.92,57.878H72.647V9.928H88.92V57.878z" fill="#fb9343"></path></g></g></svg>